<svg width="23" height="23" viewBox="0 0 23 23" fill="none" xmlns="http://www.w3.org/2000/svg">
<path d="M2.84701 18.6286L3.47419 18.8502L3.47419 18.8502L2.84701 18.6286ZM4.2051 19.9867L3.98348 19.3595L3.98348 19.3595L4.2051 19.9867ZM6.4425 19.1961L6.22088 18.5689L6.4425 19.1961ZM7.20999 19.2694L7.53254 18.6877L7.20999 19.2694ZM3.61165 15.557L3.02006 15.8612L3.61165 15.557ZM3.30045 11.5074C3.30045 6.97644 6.97352 3.30338 11.5045 3.30338V1.97299C6.23876 1.97299 1.97006 6.24169 1.97006 11.5074H3.30045ZM4.20323 15.2529C3.62635 14.1308 3.30045 12.8581 3.30045 11.5074H1.97006C1.97006 13.0746 2.34869 14.5553 3.02006 15.8612L4.20323 15.2529ZM3.47419 18.8502L4.29759 16.52L3.04322 16.0768L2.21982 18.407L3.47419 18.8502ZM3.98348 19.3595C3.66714 19.4713 3.36241 19.1666 3.47419 18.8502L2.21982 18.407C1.73543 19.7778 3.05591 21.0983 4.42672 20.6139L3.98348 19.3595ZM6.22088 18.5689L3.98348 19.3595L4.42672 20.6139L6.66412 19.8233L6.22088 18.5689ZM11.5045 19.7114C10.0622 19.7114 8.70876 19.3398 7.53254 18.6877L6.88743 19.8512C8.256 20.61 9.83081 21.0418 11.5045 21.0418V19.7114ZM19.7085 11.5074C19.7085 16.0384 16.0354 19.7114 11.5045 19.7114V21.0418C16.7702 21.0418 21.0389 16.7731 21.0389 11.5074H19.7085ZM11.5045 3.30338C16.0354 3.30338 19.7085 6.97644 19.7085 11.5074H21.0389C21.0389 6.24169 16.7702 1.97299 11.5045 1.97299V3.30338ZM6.66412 19.8233C6.72221 19.8028 6.8037 19.8048 6.88743 19.8512L7.53254 18.6877C7.14618 18.4735 6.6696 18.4104 6.22088 18.5689L6.66412 19.8233ZM3.02006 15.8612C3.06206 15.9429 3.06297 16.0209 3.04322 16.0768L4.29759 16.52C4.45002 16.0887 4.39753 15.6308 4.20323 15.2529L3.02006 15.8612Z" fill="#2F667F"/>
<circle cx="7.11402" cy="11.5515" r="1.10865" fill="#2F667F"/>
<circle cx="11.5486" cy="11.5515" r="1.10865" fill="#2F667F"/>
<circle cx="15.9832" cy="11.5515" r="1.10865" fill="#2F667F"/>
</svg>
